<?xml version="1.0" standalone="no"?><!DOCTYPE svg PUBLIC "-//W3C//DTD SVG 1.1//EN" "http://www.w3.org/Graphics/SVG/1.1/DTD/svg11.dtd"><svg t="1587966875945" class="icon" viewBox="0 0 1024 1024" version="1.1" xmlns="http://www.w3.org/2000/svg" p-id="1148" xmlns:xlink="http://www.w3.org/1999/xlink" width="200" height="200"><defs><style type="text/css"></style></defs><path d="M480.33 603.28l-43.99 55.52-100.43 127.04c-10.84 13.77-30.69 16.24-44.69 5.41-7.67-6.31-11.74-15.57-11.74-25.05h-0.44V257.58c0-17.35 14.44-31.59 32.05-31.59 11.04 0 20.98 5.43 26.62 14.45L436.33 365l43.99 55.96V257.58c0-17.35 14.21-31.59 31.82-31.59 11.51 0 21.21 5.43 26.85 14.45L637.82 365l100.42 127.5c9.24 11.71 8.8 28.19-0.46 39.7l-99.96 126.6-100.63 127.04c-10.84 13.77-30.92 16.24-44.69 5.41-7.9-6.31-11.74-15.57-11.74-25.05h-0.44V603.28h0.01z m107.63 16.26l85.08-107.86-85.08-107.42-43.99-55.5v326.28l43.99-55.5z m-201.28 0l85.08-107.86-85.08-107.42-43.76-55.5v326.28l43.76-55.5z" fill="#e6e6e6" p-id="1149"></path></svg>