<?xml version="1.0" standalone="no"?><!DOCTYPE svg PUBLIC "-//W3C//DTD SVG 1.1//EN" "http://www.w3.org/Graphics/SVG/1.1/DTD/svg11.dtd"><svg t="1587966902581" class="icon" viewBox="0 0 1024 1024" version="1.1" xmlns="http://www.w3.org/2000/svg" p-id="1518" xmlns:xlink="http://www.w3.org/1999/xlink" width="200" height="200"><defs><style type="text/css"></style></defs><path d="M244.83 225.99h203.31c17.84 0 31.82 14.01 31.82 31.59v508.61c0 17.61-13.98 31.82-31.82 31.82H244.83c-17.58 0-31.59-14.21-31.59-31.82V257.58c0.01-17.58 14.01-31.59 31.59-31.59z m330.82 0h203.31c17.81 0 31.8 14.01 31.8 31.59v508.61c0 17.61-13.98 31.82-31.8 31.82H575.65c-17.61 0-32.05-14.21-32.05-31.82V257.58c0-17.58 14.44-31.59 32.05-31.59z m171.49 63.2H607.23v445.42h139.91V289.19z m-330.81 0H276.42v445.42h139.91V289.19z" fill="#e6e6e6" p-id="1519"></path></svg>