<?xml version="1.0" standalone="no"?><!DOCTYPE svg PUBLIC "-//W3C//DTD SVG 1.1//EN" "http://www.w3.org/Graphics/SVG/1.1/DTD/svg11.dtd"><svg t="1587966844450" class="icon" viewBox="0 0 1024 1024" version="1.1" xmlns="http://www.w3.org/2000/svg" p-id="881" xmlns:xlink="http://www.w3.org/1999/xlink" width="200" height="200"><defs><style type="text/css"></style></defs><path d="M552.24 511.68l85.31 107.86 43.76 55.5V348.76l-43.76 55.5-85.31 107.42z m-201.25 0l85.29 107.86 43.76 55.5V348.76l-43.76 55.5-85.29 107.42z m35.63 147.12L285.99 532.2c-9.04-11.51-9.47-27.98 0-39.7L386.62 365l98.85-124.57c5.41-9.01 15.34-14.45 26.62-14.45 17.61 0 31.59 14.24 31.59 31.59v163.38L587.9 365l98.39-124.57c5.87-9.01 15.8-14.45 26.64-14.45 17.58 0 32.03 14.24 32.03 31.59V766.2c0 9.47-4.51 18.74-12.18 25.05-13.54 10.84-33.85 8.36-44.69-5.41L587.9 658.8l-44.23-55.52V766.2c0 9.47-4.04 18.74-12.18 25.05-13.54 10.84-33.62 8.36-44.69-5.41L386.62 658.8z" fill="#e6e6e6" p-id="882"></path></svg>